<svg xmlns="http://www.w3.org/2000/svg" xmlns:xlink="http://www.w3.org/1999/xlink" viewBox="0 0 758.27 758.27"><defs><style>.cls-1{fill:url(#radial-gradient);}.cls-2{fill:#fff;}</style><radialGradient id="radial-gradient" cx="-959.44" cy="1449.24" r="732.97" gradientTransform="translate(1939.6 883.26) rotate(70.64)" gradientUnits="userSpaceOnUse"><stop offset="0" stop-color="#f77e00"/><stop offset="1" stop-color="#f56000"/></radialGradient></defs><title>Asset 2</title><g id="Layer_2" data-name="Layer 2"><g id="Layer_1-2" data-name="Layer 1"><path class="cls-1" d="M33.22,758.27C14.9,758.31,0,744.47,0,726.15V33.21C0,14.9,13.81,0,32.13,0H725.06c18.32,0,33.19,13.81,33.21,32.13V725.06c0,18.32-13.8,33.19-32.12,33.21Z"/><path class="cls-2" d="M409.83,348.49c-14.05-7.59-31.09-3.26-38.06,9.66s-1.24,29.53,12.82,37.12,31.08,3.25,38.06-9.66S423.88,356.08,409.83,348.49Zm96.64,290.07c-24.34-11-33.38-43.55-20.21-72.65s43.59-43.77,67.93-32.75a42,42,0,0,1,18,15.7c.18-2.86.31-5.75.35-8.68.42-26.7-4.89-49.29-14.25-68.55a36.77,36.77,0,0,1-4.36,15.85c-10.37,19.2-35.71,25.64-56.61,14.36s-29.43-36-19.06-55.21c8.94-16.57,29.05-23.62,47.82-18-25.81-24.16-59.15-40.59-91.47-53.29A32.49,32.49,0,0,1,430.72,390c-9.18,17-31.64,22.72-50.14,12.73s-26.07-31.89-16.88-48.9a33.09,33.09,0,0,1,1.85-3A234.29,234.29,0,0,1,339.61,340c-11,7.36-26.27,8.26-39.55,1.1-18.5-10-26.06-31.89-16.88-48.9s31.63-22.72,50.14-12.72a40.68,40.68,0,0,1,13.1,11.15c18.1-1.9,42.32-.76,66.94-.07,78,2.17,168.58-65.79,26.76-222.39,0,0,60.93,103.3,27.69,153.26-31.41,47.2-154.15-7.07-212.32,13-48.35,16.66-69.18,91.39-5,137.29s156.23,42.51,186.26,116.91S380,627.69,292.13,628.38C209.93,629,107.68,666.1,66,758.27H392.31C415,747.5,441.92,731.08,468,712.5a38,38,0,0,1-31-6.5c-17.45-13.1-20.05-39.12-5.78-58.11s40-23.76,57.42-10.65c15.12,11.36,19.08,32.41,10.6,50.18a254.92,254.92,0,0,0,42.37-48.87C530.13,643.25,517.66,643.62,506.47,638.56ZM485.31,450.44c-8.43,15.63-1.5,35.74,15.51,44.92s37.62,3.94,46.06-11.69,1.49-35.74-15.51-44.91S493.75,434.81,485.31,450.44ZM550.66,541c-20.73-9.39-46.64,3.1-57.87,27.89s-3.52,52.51,17.21,61.89,46.64-3.1,57.86-27.89S571.38,550.36,550.66,541Zm-65.4,100.79c-15.16-11.39-37.5-7.25-49.88,9.25s-10.14,39.09,5,50.48,37.51,7.25,49.89-9.25S500.42,653.14,485.26,641.76ZM329.76,286c-14.54-7.85-32.17-3.38-39.39,10s-1.28,30.56,13.26,38.41,32.18,3.37,39.39-10S344.29,293.88,329.76,286Z"/></g></g></svg>